<svg xmlns="http://www.w3.org/2000/svg" xmlns:xlink="http://www.w3.org/1999/xlink" id="Layer_1" x="0" y="0" enable-background="new 0 0 1000 800" version="1.1" viewBox="0 0 1000 800" xml:space="preserve"><linearGradient id="SVGID_1_" x1="84.164" x2="84.164" y1="90.354" y2="132.883" gradientTransform="matrix(1.6714 0 0 1.6714 -0.6714 241.383)" gradientUnits="userSpaceOnUse"><stop offset="0" style="stop-color:#8ebdfd"/><stop offset=".992" style="stop-color:#838cf7"/></linearGradient><circle cx="140" cy="428" r="35.6" fill="url(#SVGID_1_)"/><linearGradient id="SVGID_2_" x1="917.482" x2="917.482" y1="59.154" y2="71.331" gradientUnits="userSpaceOnUse"><stop offset="0" style="stop-color:#fbdb58"/><stop offset=".998" style="stop-color:#fcbe5e"/></linearGradient><circle cx="917.5" cy="65.2" r="6.1" fill="url(#SVGID_2_)"/><linearGradient id="SVGID_3_" x1="847.461" x2="847.461" y1="184.851" y2="212.251" gradientUnits="userSpaceOnUse"><stop offset="0" style="stop-color:#fbdb58"/><stop offset=".998" style="stop-color:#fcbe5e"/></linearGradient><circle cx="847.5" cy="198.6" r="13.7" fill="url(#SVGID_3_)"/><linearGradient id="SVGID_4_" x1="570.42" x2="570.42" y1="504.931" y2="553.209" gradientUnits="userSpaceOnUse"><stop offset="0" style="stop-color:#fbdb58"/><stop offset=".998" style="stop-color:#fcbe5e"/></linearGradient><circle cx="570.4" cy="529.1" r="24.1" fill="url(#SVGID_4_)"/><linearGradient id="SVGID_5_" x1="167.037" x2="167.037" y1="260.961" y2="538.002" gradientUnits="userSpaceOnUse"><stop offset="0" style="stop-color:#fbdb58"/><stop offset=".998" style="stop-color:#fcbe5e"/></linearGradient><circle cx="167" cy="399.5" r="138.5" fill="url(#SVGID_5_)"/><linearGradient id="SVGID_6_" x1="575.291" x2="575.291" y1="160.324" y2="800.962" gradientUnits="userSpaceOnUse"><stop offset="0" style="stop-color:#fbdb58"/><stop offset=".998" style="stop-color:#fcbe5e"/></linearGradient><path fill="url(#SVGID_6_)" d="M1000,160.5c1.7-0.8-72-5.7-194.1,186.1c-35.7,56.1-87.9,191.8-118.7,235.2	c-88.6,124.7-140.4-28.6-358.1,29.7C187.9,649.2,150.6,801,150.6,801H1000V160.5z"/></svg>